<svg width="252" height="48" viewBox="0 0 252 48" fill="none" xmlns="http://www.w3.org/2000/svg">
<path d="M14.6245 36.7777C9.9578 36.7777 6.39113 35.6944 3.92446 33.5277C1.4578 31.3611 0.224463 28.1944 0.224463 24.0277V13.3277C0.224463 9.16107 1.44113 5.9944 3.87446 3.82773C6.3078 1.66107 9.82446 0.577734 14.4245 0.577734C17.5911 0.577734 20.2078 1.0944 22.2745 2.12773C24.3411 3.16107 26.0078 4.72773 27.2745 6.82773L23.0745 9.77773C22.0078 8.17773 20.8245 7.02773 19.5245 6.32773C18.2578 5.5944 16.5745 5.22773 14.4745 5.22773C8.9078 5.22773 6.12446 7.92773 6.12446 13.3277V24.0277C6.12446 29.4277 8.94113 32.1277 14.5745 32.1277C16.8078 32.1277 18.6078 31.7444 19.9745 30.9777C21.3411 30.2111 22.5245 29.0111 23.5245 27.3777L27.7245 30.4777C26.1578 32.6777 24.3911 34.2777 22.4245 35.2777C20.4578 36.2777 17.8578 36.7777 14.6245 36.7777ZM52.1127 29.9277C52.1127 30.7277 52.2627 31.3777 52.5627 31.8777C52.8627 32.3777 53.4127 32.9444 54.2127 33.5777L50.5627 36.7777C48.6961 35.8444 47.5127 34.6111 47.0127 33.0777C46.2461 34.1444 45.1961 35.0277 43.8627 35.7277C42.5294 36.4277 40.9461 36.7777 39.1127 36.7777C36.7127 36.7777 34.8127 36.1777 33.4127 34.9777C32.0127 33.7444 31.3127 32.0111 31.3127 29.7777C31.3127 27.2111 32.1961 25.3944 33.9627 24.3277C35.7294 23.2611 37.9794 22.5777 40.7127 22.2777L43.6127 21.9777C44.6794 21.8777 45.4294 21.6944 45.8627 21.4277C46.3294 21.1277 46.5961 20.6944 46.6627 20.1277C46.4627 17.3277 44.7794 15.9277 41.6127 15.9277C40.3794 15.9277 39.3127 16.1444 38.4127 16.5777C37.5461 16.9777 36.7127 17.6611 35.9127 18.6277L32.1627 15.9777C33.0627 14.7444 34.2627 13.7944 35.7627 13.1277C37.2627 12.4277 39.2127 12.0777 41.6127 12.0777C45.1127 12.0777 47.7294 12.8111 49.4627 14.2777C51.2294 15.7111 52.1127 17.8111 52.1127 20.5777V29.9277ZM40.4627 32.7777C42.3961 32.7777 43.9127 32.2944 45.0127 31.3277C46.1127 30.3611 46.6627 29.1444 46.6627 27.6777V24.9777C46.0294 25.2444 44.9294 25.4611 43.3627 25.6277L41.1127 25.8777C38.0461 26.2111 36.5127 27.4277 36.5127 29.5277C36.5127 30.5944 36.8461 31.4111 37.5127 31.9777C38.2127 32.5111 39.1961 32.7777 40.4627 32.7777ZM71.5881 12.0777C74.1215 12.0777 76.0548 12.7944 77.3881 14.2277C78.7548 15.6277 79.4381 17.6111 79.4381 20.1777V36.1777H73.9881V20.7277C73.9881 19.3611 73.6381 18.2944 72.9381 17.5277C72.2715 16.7277 71.3215 16.3277 70.0881 16.3277C68.6548 16.3277 67.4715 16.7944 66.5381 17.7277C65.6048 18.6277 64.8881 19.8277 64.3881 21.3277V36.1777H58.9381V18.9277C58.9381 18.1277 58.7881 17.4777 58.4881 16.9777C58.1881 16.4777 57.6381 15.9111 56.8381 15.2777L60.4881 12.0777C61.5548 12.6444 62.3715 13.2611 62.9381 13.9277C63.5048 14.5611 63.9048 15.3277 64.1381 16.2277C64.8381 14.9611 65.8215 13.9611 67.0881 13.2277C68.3548 12.4611 69.8548 12.0777 71.5881 12.0777ZM98.6877 12.0777C101.221 12.0777 103.154 12.7944 104.488 14.2277C105.854 15.6277 106.538 17.6111 106.538 20.1777V36.1777H101.088V20.7277C101.088 19.3611 100.738 18.2944 100.038 17.5277C99.3711 16.7277 98.4211 16.3277 97.1877 16.3277C95.7544 16.3277 94.5711 16.7944 93.6377 17.7277C92.7044 18.6277 91.9877 19.8277 91.4877 21.3277V36.1777H86.0377V18.9277C86.0377 18.1277 85.8877 17.4777 85.5877 16.9777C85.2877 16.4777 84.7377 15.9111 83.9377 15.2777L87.5877 12.0777C88.6544 12.6444 89.4711 13.2611 90.0377 13.9277C90.6044 14.5611 91.0044 15.3277 91.2377 16.2277C91.9377 14.9611 92.9211 13.9611 94.1877 13.2277C95.4544 12.4611 96.9544 12.0777 98.6877 12.0777ZM132.826 29.9277C132.826 30.7277 132.976 31.3777 133.276 31.8777C133.576 32.3777 134.126 32.9444 134.926 33.5777L131.276 36.7777C129.409 35.8444 128.226 34.6111 127.726 33.0777C126.959 34.1444 125.909 35.0277 124.576 35.7277C123.242 36.4277 121.659 36.7777 119.826 36.7777C117.426 36.7777 115.526 36.1777 114.126 34.9777C112.726 33.7444 112.026 32.0111 112.026 29.7777C112.026 27.2111 112.909 25.3944 114.676 24.3277C116.442 23.2611 118.692 22.5777 121.426 22.2777L124.326 21.9777C125.392 21.8777 126.142 21.6944 126.576 21.4277C127.042 21.1277 127.309 20.6944 127.376 20.1277C127.176 17.3277 125.492 15.9277 122.326 15.9277C121.092 15.9277 120.026 16.1444 119.126 16.5777C118.259 16.9777 117.426 17.6611 116.626 18.6277L112.876 15.9777C113.776 14.7444 114.976 13.7944 116.476 13.1277C117.976 12.4277 119.926 12.0777 122.326 12.0777C125.826 12.0777 128.442 12.8111 130.176 14.2777C131.942 15.7111 132.826 17.8111 132.826 20.5777V29.9277ZM121.176 32.7777C123.109 32.7777 124.626 32.2944 125.726 31.3277C126.826 30.3611 127.376 29.1444 127.376 27.6777V24.9777C126.742 25.2444 125.642 25.4611 124.076 25.6277L121.826 25.8777C118.759 26.2111 117.226 27.4277 117.226 29.5277C117.226 30.5944 117.559 31.4111 118.226 31.9777C118.926 32.5111 119.909 32.7777 121.176 32.7777Z" fill="#207B1E"/>
<path d="M178.637 1.17773L170.637 36.1777H168.887C167.221 36.1777 165.887 35.9777 164.887 35.5777C163.887 35.1777 163.054 34.4944 162.387 33.5277C161.754 32.5611 161.137 31.1777 160.537 29.3777L157.087 18.8777L153.737 29.3777C153.171 31.1444 152.537 32.5111 151.837 33.4777C151.171 34.4444 150.321 35.1444 149.287 35.5777C148.287 35.9777 146.971 36.1777 145.337 36.1777H143.587L135.587 1.17773H141.137L147.787 30.6777C148.254 30.2777 148.687 29.5111 149.087 28.3777L157.087 5.27773L165.187 28.3777C165.521 29.4777 165.937 30.2444 166.437 30.6777L173.087 1.17773H178.637ZM200.99 29.9277C200.99 30.7277 201.14 31.3777 201.44 31.8777C201.74 32.3777 202.29 32.9444 203.09 33.5777L199.44 36.7777C197.573 35.8444 196.39 34.6111 195.89 33.0777C195.123 34.1444 194.073 35.0277 192.74 35.7277C191.406 36.4277 189.823 36.7777 187.99 36.7777C185.59 36.7777 183.69 36.1777 182.29 34.9777C180.89 33.7444 180.19 32.0111 180.19 29.7777C180.19 27.2111 181.073 25.3944 182.84 24.3277C184.606 23.2611 186.856 22.5777 189.59 22.2777L192.49 21.9777C193.556 21.8777 194.306 21.6944 194.74 21.4277C195.206 21.1277 195.473 20.6944 195.54 20.1277C195.34 17.3277 193.656 15.9277 190.49 15.9277C189.256 15.9277 188.19 16.1444 187.29 16.5777C186.423 16.9777 185.59 17.6611 184.79 18.6277L181.04 15.9777C181.94 14.7444 183.14 13.7944 184.64 13.1277C186.14 12.4277 188.09 12.0777 190.49 12.0777C193.99 12.0777 196.606 12.8111 198.34 14.2777C200.106 15.7111 200.99 17.8111 200.99 20.5777V29.9277ZM189.34 32.7777C191.273 32.7777 192.79 32.2944 193.89 31.3277C194.99 30.3611 195.54 29.1444 195.54 27.6777V24.9777C194.906 25.2444 193.806 25.4611 192.24 25.6277L189.99 25.8777C186.923 26.2111 185.39 27.4277 185.39 29.5277C185.39 30.5944 185.723 31.4111 186.39 31.9777C187.09 32.5111 188.073 32.7777 189.34 32.7777ZM220.065 12.0777C221.598 12.0777 222.948 12.4944 224.115 13.3277L222.715 17.9277C222.115 17.5277 221.498 17.2444 220.865 17.0777C220.265 16.8777 219.565 16.7777 218.765 16.7777C216.165 16.7777 214.332 18.6944 213.265 22.5277V36.1777H207.815V18.9277C207.815 18.1277 207.665 17.4777 207.365 16.9777C207.065 16.4777 206.515 15.9111 205.715 15.2777L209.365 12.0777C210.532 12.6777 211.398 13.3444 211.965 14.0777C212.565 14.7777 212.948 15.6611 213.115 16.7277C213.815 15.2944 214.748 14.1611 215.915 13.3277C217.082 12.4944 218.465 12.0777 220.065 12.0777ZM241.175 12.0777C243.375 12.0777 245.242 12.6111 246.775 13.6777C248.309 14.7111 249.459 16.1111 250.225 17.8777C250.992 19.6111 251.375 21.5277 251.375 23.6277V25.2277C251.375 27.3277 250.992 29.2611 250.225 31.0277C249.459 32.7611 248.309 34.1611 246.775 35.2277C245.242 36.2611 243.375 36.7777 241.175 36.7777C239.242 36.7777 237.692 36.4944 236.525 35.9277C235.392 35.3277 234.442 34.4944 233.675 33.4277V47.1277H228.225V18.9277C228.225 18.1277 228.059 17.4777 227.725 16.9777C227.425 16.4444 226.892 15.8777 226.125 15.2777L229.775 12.0777C230.809 12.6111 231.609 13.2111 232.175 13.8777C232.742 14.5111 233.125 15.2611 233.325 16.1277C235.059 13.4277 237.675 12.0777 241.175 12.0777ZM245.925 23.6277C245.925 21.5277 245.375 19.7944 244.275 18.4277C243.175 17.0277 241.642 16.3277 239.675 16.3277C236.609 16.3277 234.609 17.8444 233.675 20.8777V27.9777C234.609 31.0111 236.609 32.5277 239.675 32.5277C241.642 32.5277 243.175 31.8444 244.275 30.4777C245.375 29.0777 245.925 27.3277 245.925 25.2277V23.6277Z" fill="#5DBF46"/>
</svg>
