<svg width="39" height="51" viewBox="0 0 39 51" fill="none" xmlns="http://www.w3.org/2000/svg">
<path d="M32.235 21.9997H32.085V13.9997C32.0868 12.2417 31.732 10.5016 31.0421 8.88469C30.3522 7.26772 29.3415 5.80749 28.0712 4.59228C26.8008 3.37708 25.2972 2.43216 23.6512 1.81467C22.0053 1.19717 20.2511 0.919938 18.495 0.999724C15.1041 1.2197 11.9268 2.73206 9.61796 5.22513C7.30908 7.7182 6.04454 11.002 6.08496 14.3997V23.0108C6.08496 23.6738 6.34012 23.2443 6.80896 23.7132C7.2778 24.182 8.06106 25.0692 8.7241 25.0692C9.38715 25.0692 10.0063 24.182 10.4751 23.7132C10.9439 23.2443 11.085 23.6738 11.085 23.0108V14.3197C11.049 12.2442 11.8005 10.2321 13.1884 8.68836C14.5762 7.14466 16.4973 6.18399 18.565 5.99972C19.6584 5.92849 20.7549 6.08267 21.7863 6.45269C22.8178 6.82271 23.7622 7.40069 24.5611 8.15078C25.3599 8.90087 25.9961 9.80707 26.4303 10.8132C26.8644 11.8193 27.0873 12.9039 27.085 13.9997V21.9997H5.93496C4.38344 21.9997 2.89547 22.6161 1.79839 23.7132C0.701298 24.8102 0.0849609 26.2982 0.0849609 27.8497L0.0849609 45.1497C0.0849609 46.7012 0.701298 48.1892 1.79839 49.2863C2.89547 50.3834 4.38344 50.9997 5.93496 50.9997H32.235C33.7865 50.9997 35.2744 50.3834 36.3715 49.2863C37.4686 48.1892 38.085 46.7012 38.085 45.1497V27.8497C38.085 26.2982 37.4686 24.8102 36.3715 23.7132C35.2744 22.6161 33.7865 21.9997 32.235 21.9997ZM33.085 45.1497C33.085 45.2614 33.063 45.3719 33.0203 45.475C32.9775 45.5781 32.9149 45.6718 32.836 45.7508C32.7571 45.8297 32.6634 45.8923 32.5602 45.935C32.4571 45.9777 32.3466 45.9997 32.235 45.9997H5.93496C5.70953 45.9997 5.49333 45.9102 5.33392 45.7508C5.17451 45.5914 5.08496 45.3752 5.08496 45.1497V27.8497C5.08496 27.6243 5.17451 27.4081 5.33392 27.2487C5.49333 27.0893 5.70953 26.9997 5.93496 26.9997H32.235C32.3466 26.9997 32.4571 27.0217 32.5602 27.0644C32.6634 27.1071 32.7571 27.1698 32.836 27.2487C32.9149 27.3276 32.9775 27.4213 33.0203 27.5244C33.063 27.6276 33.085 27.7381 33.085 27.8497V45.1497Z" fill="#111111"/>
<path d="M21.585 34.5C21.585 33.1193 20.4657 32 19.085 32C17.7042 32 16.585 33.1193 16.585 34.5V38.5C16.585 39.8807 17.7042 41 19.085 41C20.4657 41 21.585 39.8807 21.585 38.5V34.5Z" fill="#FF3321"/>
</svg>
