<svg width="76" height="76" viewBox="0 0 76 76" fill="none" xmlns="http://www.w3.org/2000/svg">
<g filter="url(#filter0_ii_360_881)">
<rect x="0.205444" y="0.380859" width="75.0016" height="75.0016" rx="10" fill="white"/>
</g>
<path d="M44.2217 45.0398L24.9406 57.842C31.4201 62.5449 35.339 62.9106 39.7805 61.1862C43.3338 59.8067 48.7195 55.2396 49.5381 54.3687C53.0914 47.6384 46.521 46.172 44.2217 45.0398Z" fill="url(#paint0_linear_360_881)"/>
<path d="M47.515 33.7362C45.3149 32.3569 28.4826 23.1367 20.5914 18.4946C18.5066 30.6128 22.2619 32.8948 27.8885 36.3137L27.974 36.3657C31.0428 38.2307 35.3175 40.4725 38.577 42.0016C48.3791 46.5996 48.6245 50.9503 46.6877 56.8097C63.7276 45.6067 51.1689 36.0269 47.515 33.7362Z" fill="url(#paint1_linear_360_881)"/>
<circle cx="46.0958" cy="21.0092" r="7.37812" fill="url(#paint2_linear_360_881)"/>
<defs>
<filter id="filter0_ii_360_881" x="0.205444" y="-2.73032" width="75.0016" height="81.2241" filterUnits="userSpaceOnUse" color-interpolation-filters="sRGB">
<feFlood flood-opacity="0" result="BackgroundImageFix"/>
<feBlend mode="normal" in="SourceGraphic" in2="BackgroundImageFix" result="shape"/>
<feColorMatrix in="SourceAlpha" type="matrix" values="0 0 0 0 0 0 0 0 0 0 0 0 0 0 0 0 0 0 127 0" result="hardAlpha"/>
<feOffset dy="3.11118"/>
<feGaussianBlur stdDeviation="1.55559"/>
<feComposite in2="hardAlpha" operator="arithmetic" k2="-1" k3="1"/>
<feColorMatrix type="matrix" values="0 0 0 0 1 0 0 0 0 1 0 0 0 0 1 0 0 0 1 0"/>
<feBlend mode="normal" in2="shape" result="effect1_innerShadow_360_881"/>
<feColorMatrix in="SourceAlpha" type="matrix" values="0 0 0 0 0 0 0 0 0 0 0 0 0 0 0 0 0 0 127 0" result="hardAlpha"/>
<feOffset dy="-3.11118"/>
<feGaussianBlur stdDeviation="1.55559"/>
<feComposite in2="hardAlpha" operator="arithmetic" k2="-1" k3="1"/>
<feColorMatrix type="matrix" values="0 0 0 0 0.925 0 0 0 0 0.925 0 0 0 0 0.925 0 0 0 1 0"/>
<feBlend mode="normal" in2="effect1_innerShadow_360_881" result="effect2_innerShadow_360_881"/>
</filter>
<linearGradient id="paint0_linear_360_881" x1="26.2721" y1="59.4321" x2="50.0065" y2="50.1447" gradientUnits="userSpaceOnUse">
<stop offset="0.0643643" stop-color="#8816AA"/>
<stop offset="0.302583" stop-color="#9C0AC8"/>
<stop offset="0.623089" stop-color="#C63DFF"/>
<stop offset="1" stop-color="#5C0A7A"/>
</linearGradient>
<linearGradient id="paint1_linear_360_881" x1="45.2248" y1="22.9799" x2="48.8918" y2="64.5392" gradientUnits="userSpaceOnUse">
<stop offset="0.131197" stop-color="#56ACEA"/>
<stop offset="0.709502" stop-color="#C705F9"/>
</linearGradient>
<linearGradient id="paint2_linear_360_881" x1="50.9066" y1="13.6311" x2="41.6107" y2="28.3873" gradientUnits="userSpaceOnUse">
<stop stop-color="#56FFDF"/>
<stop offset="0.776042" stop-color="#54BBE8"/>
</linearGradient>
</defs>
</svg>
