<svg width="770" height="235" viewBox="0 0 770 235" fill="none" xmlns="http://www.w3.org/2000/svg">
<path d="M117.177 151.762L24.1479 213.531C55.4109 236.222 74.3191 237.987 95.7492 229.667C112.893 223.011 138.879 200.975 142.829 196.773C159.973 164.3 128.271 157.225 117.177 151.762Z" fill="url(#paint0_linear_180_143)"/>
<path d="M133.067 97.224C122.452 90.5688 41.2381 46.0827 3.16353 23.6851C-6.89537 82.1542 11.2237 93.1642 38.3713 109.66L38.7839 109.911C53.5908 118.909 74.2156 129.726 89.9425 137.103C137.236 159.288 138.421 180.28 129.076 208.551C211.291 154.498 150.697 108.276 133.067 97.224Z" fill="url(#paint1_linear_180_143)"/>
<circle cx="126.22" cy="35.8176" r="35.5986" fill="url(#paint2_linear_180_143)"/>
<path fill-rule="evenodd" clip-rule="evenodd" d="M621.863 75.22C623.585 82.2097 617.856 88.5761 614.89 91.0643C614.571 90.8998 614.259 90.7371 613.95 90.5763C608.151 87.5594 603.699 85.2436 590.566 85.2436C576.429 86.1941 576.083 96.6923 575.927 101.452L575.919 101.679V110.944H614.643C616.758 112.985 618.801 117.174 619.227 119.023C620.986 130.232 612.887 133.375 608.949 133.536H576.046V208.735C573.3 210.702 567.256 211.487 564.578 211.633C552.214 212.458 549.868 203.314 550.24 198.639V101.254C550.403 92.7112 552.728 84.3494 554.357 81.2901C561.779 67.3519 575.044 63.3897 589.697 62.5059C604.784 61.596 619.653 66.2463 621.863 75.22ZM348.901 93.8105C348.6 101.47 341.748 105.18 338.031 106.895C326.073 96.6643 311.144 95.2 302.171 95.7573C291.988 96.2201 284.429 101.311 283.812 109.179C283.195 117.047 286.649 120.792 290.428 123.029C293.972 125.126 303.604 127.853 309.734 129.589C311.129 129.984 312.341 130.327 313.261 130.6C313.635 130.712 314.189 130.85 314.892 131.026C323.493 133.179 354.437 140.923 353.247 172.81C352.074 204.211 323.372 210.591 316.985 211.754C304.805 213.972 272.93 214.534 259.449 197.996C250.342 185.701 261.527 177.447 269.353 175.544C287.2 193.338 306.054 189.862 312.76 188.626L313.097 188.564C320.358 186.802 328.86 180.573 326.462 167.896C324.526 157.664 311.879 154.151 300.465 150.98C297.149 150.058 293.937 149.166 291.122 148.146C280.872 144.905 273.174 140.561 270.287 138.375C253.483 125.646 253.077 96.9171 269.467 83.3735C287.9 68.1418 313.994 72.0072 323.917 74.2833C337.087 77.3042 349.277 84.2365 348.901 93.8105ZM388.233 76.9135C382.523 74.2878 373.47 77.0868 369.657 78.8145L369.664 181.597C370.007 190.391 372.901 201.899 383.855 207.762C393.844 213.108 404.603 212.937 409.111 212.866C409.547 212.859 409.924 212.853 410.236 212.853C413.785 212.853 427.438 211.233 431.064 201.668C433.964 194.016 428.004 187.346 424.662 184.967C424.403 185.064 424.009 185.3 423.474 185.619L423.474 185.619C420.899 187.158 415.072 190.641 405.514 189.942C396.278 189.266 394.903 183.412 395.37 180.569V129.981H421.348C428.549 129.322 431.113 123.466 431.652 120.927C433.022 114.486 429.006 109.098 427.098 107.183H395.37V87.2812C395.579 81.0294 390.699 77.7645 388.233 76.9135ZM448.533 126.1C449.706 129.494 454.565 133.106 456.59 134.552C463.518 130.175 479.09 123.922 493.69 126.148C505.37 127.93 506.474 137.946 505.566 142.731L476.9 145.551C471.273 145.967 463.424 148.738 459.013 150.897C454.601 153.056 439.653 161.518 442.643 184.8C446.257 207.314 467.83 212.593 485.012 213.41C498.989 213.897 510.213 210.324 516.613 207.986C529.033 203.448 531.276 195.829 531.276 191.757V139.856C531.045 131.139 529.128 123.404 523.988 116.894C518.849 110.384 510.902 105.212 496.651 103.309C483.604 101.244 465.773 104.527 456.59 109.282C447.407 114.037 447.068 121.858 448.533 126.1ZM505.867 187.202V163.601L493.563 165.407L481.828 167.343C474.916 167.993 468.246 171.575 468.109 176.864C467.971 182.153 468.285 188.404 482.341 190.26C493.586 191.745 502.711 188.84 505.867 187.202ZM695.842 91.0643C698.808 88.5761 704.537 82.2097 702.815 75.22C700.605 66.2463 685.736 61.596 670.65 62.5059C655.997 63.3897 642.732 67.3519 635.309 81.2901C633.68 84.3494 631.355 92.7112 631.193 101.254V198.639C630.82 203.314 633.166 212.458 645.53 211.633C648.209 211.487 654.252 210.702 656.998 208.735V133.536H689.901C693.84 133.375 701.938 130.232 700.18 119.023C699.754 117.174 697.711 112.985 695.595 110.944H656.871V101.679L656.879 101.452C657.036 96.6923 657.381 86.1941 671.518 85.2436C684.652 85.2436 689.103 87.5594 694.902 90.5763C695.211 90.7371 695.524 90.8998 695.842 91.0643ZM232.362 106.162C225.822 102.515 215.796 105.792 211.862 107.617L211.862 199.66C212.388 209.092 217.49 211.471 223.698 212.027C228.665 212.472 235.133 210.02 237.6 208.864V116.424C237.702 110.592 234.255 107.033 232.362 106.162ZM224.643 95.3505C233.121 95.3505 239.993 88.4781 239.993 80.0005C239.993 71.5229 233.121 64.6505 224.643 64.6505C216.166 64.6505 209.293 71.5229 209.293 80.0005C209.293 88.4781 216.166 95.3505 224.643 95.3505Z" fill="url(#paint3_linear_180_143)"/>
<path d="M724.544 68.0637L733.766 40.9739H738.015L747.237 68.0637H743.229L736.475 47.5051C736.327 47.0474 736.203 46.6269 736.104 46.2434C736.005 45.8599 735.906 45.4703 735.807 45.0745H735.696C735.597 45.4703 735.492 45.8599 735.38 46.2434C735.281 46.6269 735.158 47.0474 735.009 47.5051L728.33 68.0637H724.544ZM728.868 61.2356L729.758 58.2854H741.874L742.784 61.2356H728.868ZM749.343 68.0637V41.0481H753.277V68.0637H749.343Z" fill="url(#paint4_linear_180_143)"/>
<circle cx="740.73" cy="54.5636" r="27.5207" stroke="url(#paint5_linear_180_143)" stroke-width="3"/>
<defs>
<linearGradient id="paint0_linear_180_143" x1="30.5723" y1="221.203" x2="145.088" y2="176.393" gradientUnits="userSpaceOnUse">
<stop offset="0.0643643" stop-color="#8816AA"/>
<stop offset="0.302583" stop-color="#9C0AC8"/>
<stop offset="0.623089" stop-color="#C63DFF"/>
<stop offset="1" stop-color="#5C0A7A"/>
</linearGradient>
<linearGradient id="paint1_linear_180_143" x1="122.017" y1="45.3262" x2="139.71" y2="245.845" gradientUnits="userSpaceOnUse">
<stop offset="0.131197" stop-color="#56ACEA"/>
<stop offset="0.709502" stop-color="#C705F9"/>
</linearGradient>
<linearGradient id="paint2_linear_180_143" x1="149.432" y1="0.218998" x2="104.58" y2="71.4163" gradientUnits="userSpaceOnUse">
<stop stop-color="#56FFDF"/>
<stop offset="0.776042" stop-color="#54BBE8"/>
</linearGradient>
<linearGradient id="paint3_linear_180_143" x1="122.638" y1="97.6638" x2="662.425" y2="200.074" gradientUnits="userSpaceOnUse">
<stop stop-color="#59D1E4"/>
<stop offset="0.596115" stop-color="#6398EC"/>
</linearGradient>
<linearGradient id="paint4_linear_180_143" x1="740.73" y1="41.0637" x2="740.73" y2="68.0637" gradientUnits="userSpaceOnUse">
<stop stop-color="#5CBFE6"/>
<stop offset="1" stop-color="#6398EC"/>
</linearGradient>
<linearGradient id="paint5_linear_180_143" x1="740.73" y1="25.543" x2="740.73" y2="83.5843" gradientUnits="userSpaceOnUse">
<stop stop-color="#5CC0E6"/>
<stop offset="1" stop-color="#6398EC"/>
</linearGradient>
</defs>
</svg>
