<svg width="38" height="51" viewBox="0 0 38 51" fill="none" xmlns="http://www.w3.org/2000/svg">
<path d="M32.15 21.9997H32V13.9997C32.0018 12.2417 31.647 10.5016 30.9571 8.88469C30.2673 7.26772 29.2566 5.80749 27.9862 4.59228C26.7159 3.37708 25.2122 2.43216 23.5663 1.81467C21.9203 1.19717 20.1662 0.919938 18.41 0.999724C15.0191 1.2197 11.8419 2.73206 9.533 5.22513C7.22412 7.7182 5.95958 11.002 6 14.3997V16.4997C6 17.1628 6.26339 17.7987 6.73223 18.2675C7.20107 18.7363 7.83696 18.9997 8.5 18.9997C9.16304 18.9997 9.79893 18.7363 10.2678 18.2675C10.7366 17.7987 11 17.1628 11 16.4997V14.3197C10.964 12.2442 11.7156 10.2321 13.1034 8.68836C14.4913 7.14466 16.4123 6.18399 18.48 5.99972C19.5735 5.92849 20.6699 6.08267 21.7014 6.45269C22.7328 6.82271 23.6773 7.40069 24.4761 8.15078C25.2749 8.90087 25.9112 9.80707 26.3453 10.8132C26.7795 11.8193 27.0023 12.9039 27 13.9997V21.9997H5.85C4.29848 21.9997 2.81051 22.6161 1.71343 23.7132C0.616337 24.8102 0 26.2982 0 27.8497L0 45.1497C0 46.7012 0.616337 48.1892 1.71343 49.2863C2.81051 50.3834 4.29848 50.9997 5.85 50.9997H32.15C33.7015 50.9997 35.1895 50.3834 36.2866 49.2863C37.3837 48.1892 38 46.7012 38 45.1497V27.8497C38 26.2982 37.3837 24.8102 36.2866 23.7132C35.1895 22.6161 33.7015 21.9997 32.15 21.9997ZM33 45.1497C33 45.2614 32.978 45.3719 32.9353 45.475C32.8926 45.5781 32.83 45.6718 32.751 45.7508C32.6721 45.8297 32.5784 45.8923 32.4753 45.935C32.3722 45.9777 32.2616 45.9997 32.15 45.9997H5.85C5.62457 45.9997 5.40836 45.9102 5.24896 45.7508C5.08955 45.5914 5 45.3752 5 45.1497V27.8497C5 27.6243 5.08955 27.4081 5.24896 27.2487C5.40836 27.0893 5.62457 26.9997 5.85 26.9997H32.15C32.2616 26.9997 32.3722 27.0217 32.4753 27.0644C32.5784 27.1071 32.6721 27.1698 32.751 27.2487C32.83 27.3276 32.8926 27.4213 32.9353 27.5244C32.978 27.6276 33 27.7381 33 27.8497V45.1497Z" fill="#111111"/>
<path d="M21.5 34.5C21.5 33.1193 20.3807 32 19 32C17.6193 32 16.5 33.1193 16.5 34.5V38.5C16.5 39.8807 17.6193 41 19 41C20.3807 41 21.5 39.8807 21.5 38.5V34.5Z" fill="#00C569"/>
</svg>
